<?xml version="1.0" standalone="no"?>
<!DOCTYPE svg PUBLIC "-//W3C//DTD SVG 20010904//EN"
 "http://www.w3.org/TR/2001/REC-SVG-20010904/DTD/svg10.dtd">
<svg version="1.0" xmlns="http://www.w3.org/2000/svg"
 width="512.000000pt" height="512.000000pt" viewBox="0 0 512.000000 512.000000"
 preserveAspectRatio="xMidYMid meet">
<metadata>
Created by potrace 1.11, written by Peter Selinger 2001-2013
</metadata>
<g transform="translate(0.000000,512.000000) scale(0.100000,-0.100000)"
fill="#000000" stroke="none">
<path d="M2460 4774 c-6 -16 -32 -88 -57 -161 -29 -84 -50 -130 -57 -126 -6 4
-80 54 -164 111 -84 57 -155 103 -156 101 -2 -2 7 -67 20 -144 13 -77 24 -143
24 -147 0 -4 -33 14 -72 41 -82 55 -150 93 -156 86 -2 -2 8 -19 22 -37 28 -38
111 -207 121 -250 4 -16 11 -28 16 -28 5 0 37 14 70 31 76 38 240 93 344 114
183 39 461 29 636 -21 12 -3 17 12 28 84 6 48 25 125 41 172 15 47 27 87 25
89 -2 2 -46 -40 -98 -92 l-94 -95 -7 52 c-3 28 -6 76 -7 106 0 30 -4 75 -7 99
l-7 44 -130 -142 c-71 -77 -133 -141 -137 -141 -3 0 -41 55 -83 123 -114 179
-102 166 -115 131z"/>
<path d="M2530 4303 c-111 -12 -292 -62 -398 -109 l-57 -25 36 -13 c51 -18 94
-51 118 -90 29 -46 27 -49 -20 -26 -161 83 -298 -30 -261 -216 7 -31 19 -70
27 -87 8 -17 13 -33 10 -35 -9 -10 -76 61 -97 103 -27 52 -34 148 -15 203 8
23 12 42 9 42 -8 0 -90 -68 -151 -125 -92 -86 -270 -333 -256 -355 3 -4 34
-11 70 -15 36 -3 65 -8 65 -10 0 -2 -23 -34 -50 -70 -59 -78 -138 -237 -175
-350 -28 -85 -60 -233 -53 -240 2 -2 55 11 117 29 l113 34 -6 -32 c-14 -71
-18 -336 -8 -427 14 -115 44 -234 77 -306 l25 -55 27 20 c75 54 244 241 326
360 19 29 38 49 41 44 3 -5 15 -55 26 -113 33 -155 22 -394 -25 -597 -5 -20 2
-26 59 -52 126 -57 194 -70 376 -70 173 0 245 12 378 60 63 24 166 75 204 102
16 11 32 17 36 14 5 -3 17 -39 27 -80 11 -42 22 -76 26 -76 15 0 166 120 206
163 137 148 241 355 268 527 13 88 12 88 71 29 l53 -52 10 26 c21 55 50 196
62 298 20 173 -12 372 -91 565 -36 87 -127 251 -169 304 l-21 25 0 -31 c0 -17
-2 -33 -5 -36 -3 -3 -28 18 -55 46 -48 50 -48 51 -31 71 21 23 14 64 -15 96
-20 22 -43 18 -85 -14 l-27 -20 -30 21 c-16 12 -41 26 -55 31 -25 10 -24 7 16
-53 24 -35 70 -86 102 -113 33 -28 74 -65 90 -82 l30 -32 -30 12 c-43 17 -210
17 -268 0 l-49 -14 -94 94 c-104 103 -112 124 -74 187 25 40 11 42 -53 7 l-47
-24 -87 42 c-108 52 -145 53 -231 7 -33 -17 -68 -40 -77 -50 -16 -18 -14 -20
46 -51 57 -28 76 -32 180 -38 l116 -7 49 -41 c27 -23 74 -67 104 -99 45 -46
50 -55 30 -49 -14 4 -119 10 -235 14 -204 6 -212 7 -267 34 -69 34 -123 94
-141 156 -12 44 -15 46 -55 52 -23 3 -45 9 -49 13 -12 11 73 82 136 113 l54
27 -28 23 c-26 23 -26 25 -10 43 31 34 197 109 292 132 l93 22 47 -23 c26 -13
90 -50 141 -84 75 -48 96 -57 103 -46 10 16 29 78 29 97 0 6 6 12 13 12 23 0
178 -98 262 -165 44 -35 81 -63 82 -61 1 1 -10 36 -26 77 -16 40 -32 93 -36
116 -8 52 -52 93 -158 149 -64 33 -237 97 -245 90 -1 -2 4 -29 13 -62 8 -32
15 -62 15 -67 0 -5 -31 20 -70 57 -104 98 -125 106 -267 104 -65 0 -134 -3
-153 -5z m634 -933 c24 -16 62 -37 85 -46 l41 -16 0 -89 0 -89 -82 -62 c-97
-71 -204 -125 -269 -134 l-45 -6 -72 131 c-40 72 -72 135 -72 141 0 12 127 98
200 135 42 22 143 60 168 64 2 1 23 -12 46 -29z m391 -92 c25 -106 15 -257
-19 -304 -13 -17 -15 -16 -30 13 -9 18 -38 57 -66 89 l-50 57 0 83 0 83 63 44
62 43 12 -22 c7 -12 20 -51 28 -86z m-128 -375 c39 -66 37 -119 -5 -205 -31
-63 -101 -148 -122 -148 -5 0 -10 18 -10 40 0 21 -5 62 -11 90 -11 50 -11 51
-32 35 -30 -21 -136 -73 -167 -80 -23 -5 -29 1 -67 73 -24 44 -43 82 -43 86 0
3 8 6 18 6 27 0 151 63 212 108 52 39 59 41 127 42 l72 0 28 -47z"/>
<path d="M1332 1408 l3 -283 55 0 55 0 3 93 3 92 47 0 c142 0 222 71 222 195
0 62 -14 97 -57 137 -43 41 -74 48 -209 48 l-124 0 2 -282z m249 153 c32 -33
36 -58 14 -100 -17 -35 -32 -41 -96 -41 l-49 0 0 85 0 85 51 0 c43 0 55 -5 80
-29z"/>
<path d="M3036 1659 c-31 -25 -34 -61 -6 -89 39 -39 110 -11 110 44 0 25 -41
66 -65 66 -7 0 -24 -9 -39 -21z"/>
<path d="M2128 1500 c-146 -44 -182 -264 -56 -347 74 -50 173 -48 252 3 l38
26 -32 33 -32 33 -32 -19 c-46 -28 -111 -25 -141 6 -14 13 -25 29 -25 35 0 6
49 10 140 10 l140 0 0 28 c0 135 -125 230 -252 192z m116 -101 c48 -38 35 -49
-59 -49 -47 0 -85 4 -85 9 0 19 62 61 89 61 16 0 40 -9 55 -21z"/>
<path d="M2552 1485 c-30 -25 -31 -25 -37 -5 -5 16 -15 20 -51 20 l-44 0 0
-190 0 -190 50 0 50 0 0 123 c0 138 10 167 59 167 51 0 60 -23 63 -160 l3
-125 49 0 49 0 -2 103 c-3 152 20 199 89 177 32 -10 40 -45 40 -171 l0 -115
48 3 47 3 3 134 c2 118 0 138 -18 176 -22 46 -67 75 -114 75 -37 0 -95 -26
-102 -45 -6 -14 -9 -14 -28 3 -54 49 -109 55 -154 17z"/>
<path d="M3285 1492 c-78 -38 -115 -96 -115 -182 0 -62 13 -97 52 -137 70 -73
211 -75 291 -5 17 15 16 17 -14 48 l-32 33 -25 -19 c-34 -27 -101 -27 -136 1
-53 42 -38 49 109 49 l135 0 0 42 c0 58 -35 124 -80 154 -52 35 -131 41 -185
16z m134 -98 c17 -14 31 -30 31 -35 0 -5 -38 -9 -85 -9 -94 0 -107 11 -59 49
36 28 76 26 113 -5z"/>
<path d="M1760 1310 l0 -190 49 0 49 0 4 121 c3 113 5 122 27 140 13 10 38 19
57 19 l34 0 0 50 0 50 -35 0 c-25 0 -44 -8 -60 -24 l-25 -25 -6 25 c-5 21 -12
24 -50 24 l-44 0 0 -190z"/>
<path d="M3022 1313 l3 -188 50 0 50 0 0 185 0 185 -53 3 -52 3 2 -188z"/>
<path d="M3590 1309 l0 -190 53 3 52 3 5 123 c6 140 12 152 82 152 l38 0 0 50
0 50 -39 0 c-28 0 -45 -7 -63 -25 l-26 -25 -6 25 c-6 22 -12 25 -51 25 l-45 0
0 -191z"/>
<path d="M1330 785 l0 -275 180 0 180 0 0 50 0 50 -120 0 -120 0 0 225 0 225
-60 0 -60 0 0 -275z"/>
<path d="M1825 871 c-108 -49 -144 -177 -81 -285 47 -80 175 -113 265 -67 62
32 69 47 36 81 l-28 30 -32 -20 c-38 -24 -85 -26 -124 -5 -24 12 -41 33 -41
51 0 2 62 5 138 6 l137 3 -1 36 c-2 58 -12 86 -46 125 -57 65 -143 82 -223 45z
m139 -92 c48 -38 35 -49 -59 -49 -47 0 -85 3 -85 6 0 3 5 14 11 25 21 41 92
51 133 18z"/>
<path d="M2262 879 c-65 -20 -132 -113 -132 -185 0 -69 56 -155 117 -180 52
-22 115 -18 157 11 34 23 36 23 36 5 0 -17 7 -20 50 -20 l50 0 0 185 0 185
-46 0 c-37 0 -47 -4 -51 -20 -5 -20 -5 -20 -33 0 -34 24 -103 33 -148 19z
m135 -104 c34 -24 47 -76 29 -118 -8 -20 -23 -40 -34 -46 -36 -19 -89 -13
-119 13 -23 20 -28 32 -28 71 0 39 5 51 28 71 33 28 91 32 124 9z"/>
<path d="M2707 876 c-118 -44 -164 -189 -94 -295 48 -73 155 -103 228 -65 17
8 33 13 36 10 10 -10 -9 -64 -29 -82 -31 -28 -127 -26 -167 3 l-30 23 -27 -35
c-14 -19 -24 -41 -21 -49 3 -9 25 -25 49 -38 33 -18 60 -23 118 -23 86 0 130
21 178 83 l27 35 3 219 3 218 -46 0 c-38 0 -48 -4 -52 -20 -5 -20 -6 -20 -35
1 -37 27 -93 33 -141 15z m144 -115 c38 -39 39 -87 3 -130 -47 -56 -144 -36
-162 34 -11 43 -4 70 25 99 37 38 95 36 134 -3z"/>
<path d="M3542 869 c-83 -41 -124 -141 -98 -233 16 -55 49 -93 105 -121 53
-27 156 -18 211 19 l42 28 -32 33 -32 33 -32 -19 c-49 -30 -101 -25 -139 14
l-32 32 144 3 144 3 -7 57 c-9 73 -41 123 -98 151 -57 27 -121 27 -176 0z
m142 -90 c47 -37 35 -49 -53 -49 -84 0 -97 5 -78 31 32 42 90 50 131 18z"/>
<path d="M3030 757 c0 -107 3 -128 23 -167 58 -117 250 -123 320 -11 19 31 22
54 25 168 l4 133 -56 0 -56 0 0 -120 c0 -140 -10 -160 -78 -160 -66 0 -76 22
-81 161 l-3 119 -49 0 -49 0 0 -123z"/>
</g>
</svg>
