<?xml version="1.0" standalone="no"?>
<!DOCTYPE svg PUBLIC "-//W3C//DTD SVG 20010904//EN"
 "http://www.w3.org/TR/2001/REC-SVG-20010904/DTD/svg10.dtd">
<svg version="1.0" xmlns="http://www.w3.org/2000/svg"
 width="266.000000pt" height="266.000000pt" viewBox="0 0 266.000000 266.000000"
 preserveAspectRatio="xMidYMid meet">

<g transform="translate(0.000000,266.000000) scale(0.100000,-0.100000)"
fill="#000000" stroke="none">
<path d="M1257 2603 c-2 -5 -17 -45 -31 -90 l-27 -83 -91 61 c-49 33 -92 58
-95 56 -2 -3 0 -31 6 -63 19 -98 18 -99 -45 -58 -31 20 -57 34 -59 32 -2 -1
15 -41 38 -88 l42 -85 75 32 c116 49 222 67 359 59 64 -3 131 -9 149 -12 29
-6 32 -4 32 18 0 23 20 110 36 153 4 12 -16 -2 -48 -33 -53 -51 -56 -53 -61
-30 -4 13 -7 49 -7 81 0 31 -2 57 -5 57 -3 0 -37 -34 -76 -75 -39 -41 -75 -75
-79 -75 -4 0 -29 34 -55 75 -48 77 -51 80 -58 68z"/>
<path d="M1218 2316 c-31 -7 -84 -23 -118 -36 l-62 -23 34 -18 c40 -20 86 -78
52 -65 -79 32 -123 24 -148 -29 -20 -41 -20 -71 -1 -126 l16 -43 -30 28 c-38
37 -55 87 -47 138 l7 40 -41 -32 c-48 -38 -117 -118 -159 -184 -34 -54 -30
-66 22 -66 l28 0 -32 -46 c-17 -25 -46 -79 -65 -119 -34 -74 -70 -202 -59
-213 3 -3 29 2 59 11 29 9 55 17 57 17 2 0 4 -69 4 -152 0 -131 3 -163 23
-225 12 -40 27 -75 33 -79 14 -8 138 114 186 184 24 34 39 48 44 40 4 -6 13
-50 19 -96 12 -80 6 -179 -16 -290 -5 -27 -2 -30 48 -52 44 -20 74 -25 178
-28 115 -4 132 -2 205 23 44 14 99 37 122 51 23 13 44 24 46 24 3 0 10 -20 16
-45 l11 -46 31 18 c53 31 155 148 188 215 17 34 39 96 48 136 10 39 20 72 24
72 4 0 14 -11 23 -25 9 -14 21 -25 26 -25 16 0 40 100 47 191 7 103 -8 195
-47 298 -36 93 -103 204 -108 179 -2 -10 -7 -18 -12 -18 -14 0 -52 59 -45 71
11 16 -4 59 -20 59 -9 0 -23 -5 -33 -11 -14 -9 -26 -8 -51 6 l-34 17 24 -34
c12 -18 48 -57 78 -85 46 -44 51 -51 28 -43 -36 13 -118 13 -150 1 -21 -8 -31
-3 -83 50 -56 57 -58 60 -47 89 13 33 9 35 -26 16 -22 -12 -30 -11 -69 10 -25
13 -58 24 -74 24 -28 0 -102 -32 -112 -48 -10 -16 67 -43 138 -49 69 -6 73 -8
124 -58 l54 -51 -134 4 c-160 5 -200 20 -233 90 -15 31 -28 44 -47 49 -16 3
-28 8 -28 10 0 8 50 46 82 64 26 13 28 17 14 28 -9 7 -13 17 -10 22 11 18 120
67 176 79 l58 13 77 -47 c80 -49 93 -49 93 2 0 12 3 22 8 22 12 0 103 -57 153
-94 l46 -36 -18 53 c-10 28 -18 59 -19 68 0 20 -80 73 -150 100 -70 27 -82 25
-70 -7 17 -44 11 -49 -22 -17 -64 59 -75 63 -178 62 -52 -1 -120 -7 -152 -13z
m466 -532 c46 -26 46 -26 46 -79 0 -48 -3 -55 -32 -77 -56 -42 -121 -76 -158
-83 l-35 -6 -43 80 -43 80 33 25 c35 26 156 86 174 86 6 0 32 -12 58 -26z
m194 -16 c19 -62 22 -105 11 -157 -6 -28 -15 -51 -20 -51 -5 0 -9 4 -9 8 0 5
-16 27 -35 49 -30 35 -35 49 -35 90 0 43 4 50 33 70 42 29 44 28 55 -9z m-68
-240 c11 -18 20 -44 20 -58 0 -32 -54 -126 -80 -140 -19 -10 -20 -8 -20 34 0
25 -4 47 -8 50 -5 3 -31 -7 -59 -21 -29 -14 -57 -22 -63 -18 -9 6 -50 78 -50
89 0 2 13 7 28 11 15 3 55 23 87 45 77 52 117 54 145 8z"/>
<path d="M610 670 l0 -160 33 0 32 0 -3 50 -4 50 31 0 c43 0 95 23 115 51 18
26 21 90 6 120 -18 33 -64 49 -140 49 l-70 0 0 -160z m148 88 c33 -33 -9 -94
-60 -86 -20 3 -23 10 -26 51 l-3 47 38 0 c22 0 44 -5 51 -12z"/>
<path d="M1581 806 c-16 -20 3 -56 29 -56 26 0 45 36 29 56 -6 8 -19 14 -29
14 -10 0 -23 -6 -29 -14z"/>
<path d="M1053 715 c-78 -34 -84 -150 -11 -195 39 -24 78 -25 118 -5 33 17 37
27 17 44 -10 8 -22 7 -44 -1 -26 -10 -35 -9 -59 8 l-29 19 80 5 c73 5 80 7 83
27 5 35 -26 83 -63 99 -42 17 -51 17 -92 -1z m92 -65 c4 -6 -14 -10 -45 -10
-34 0 -49 4 -45 11 18 28 72 28 90 -1z"/>
<path d="M1312 714 c-12 -8 -22 -10 -22 -5 0 6 -13 11 -30 11 l-30 0 0 -105 0
-105 30 0 29 0 3 71 c3 75 17 99 52 86 13 -5 16 -21 16 -82 l0 -75 30 0 30 0
0 68 c0 78 8 95 41 90 23 -3 24 -7 27 -80 l3 -78 29 0 30 0 0 75 c0 87 -12
119 -51 135 -23 10 -34 9 -59 -4 -28 -14 -35 -14 -61 -1 -35 19 -39 19 -67 -1z"/>
<path d="M1733 715 c-62 -27 -88 -111 -51 -167 32 -48 123 -60 173 -23 18 14
18 16 3 32 -14 14 -21 14 -48 3 -23 -10 -37 -10 -55 -2 -45 21 -27 32 50 32
l75 0 0 33 c0 42 -24 75 -66 93 -40 17 -41 17 -81 -1z m85 -63 c2 -8 -12 -12
-42 -12 -49 0 -61 15 -23 29 25 9 59 0 65 -17z"/>
<path d="M860 615 l0 -105 25 0 c24 0 25 3 25 60 0 62 21 100 55 100 9 0 15 9
15 25 0 27 -18 32 -51 15 -13 -7 -19 -7 -19 0 0 5 -11 10 -25 10 l-25 0 0
-105z"/>
<path d="M1580 615 l0 -105 30 0 30 0 0 105 0 105 -30 0 -30 0 0 -105z"/>
<path d="M1910 615 l0 -105 30 0 29 0 3 73 c3 72 3 72 36 82 24 7 32 15 32 32
0 17 -6 23 -23 23 -13 0 -29 -6 -36 -12 -11 -10 -14 -10 -18 0 -3 6 -16 12
-29 12 -24 0 -24 -1 -24 -105z"/>
<path d="M610 310 l0 -160 100 0 100 0 0 30 c0 29 0 29 -67 32 l-68 3 -3 128
-3 127 -29 0 -30 0 0 -160z"/>
<path d="M864 336 c-38 -38 -45 -85 -20 -135 27 -51 121 -69 167 -32 23 19 23
21 7 37 -14 14 -20 15 -30 6 -24 -24 -98 -9 -98 20 0 4 36 8 80 8 74 0 80 2
80 20 0 29 -26 76 -52 94 -12 9 -40 16 -61 16 -31 0 -46 -7 -73 -34z m107 -26
c33 -18 21 -30 -31 -30 -51 0 -64 11 -32 29 22 13 39 13 63 1z"/>
<path d="M1128 354 c-34 -18 -58 -62 -58 -105 0 -43 56 -99 100 -99 17 0 41 5
53 11 16 9 22 9 25 0 2 -6 15 -11 28 -11 24 0 24 0 24 110 0 110 0 110 -24
110 -13 0 -26 -5 -28 -11 -3 -9 -9 -9 -25 0 -29 15 -62 13 -95 -5z m90 -50
c40 -28 18 -104 -30 -104 -24 0 -58 35 -58 60 0 22 33 60 53 60 7 0 23 -7 35
-16z"/>
<path d="M1394 360 c-38 -15 -64 -59 -64 -107 0 -36 6 -50 31 -75 28 -29 34
-30 85 -25 58 6 66 -1 34 -33 -24 -24 -51 -25 -89 -6 -25 13 -28 13 -40 -7
-21 -33 16 -57 86 -57 47 0 59 4 84 29 l29 29 0 131 c0 125 -1 131 -20 131
-11 0 -23 -7 -26 -15 -5 -13 -8 -13 -27 0 -24 17 -51 18 -83 5z m86 -60 c11
-11 20 -29 20 -40 0 -24 -34 -60 -57 -60 -49 0 -72 76 -31 104 30 21 44 20 68
-4z"/>
<path d="M1589 366 c-2 -2 -2 -43 1 -91 4 -77 8 -88 30 -105 38 -29 110 -27
144 5 24 22 26 30 26 110 0 84 0 85 -25 85 -24 0 -25 -2 -25 -63 0 -68 -18
-107 -50 -107 -32 0 -50 39 -50 107 0 59 -1 63 -23 63 -13 0 -26 -2 -28 -4z"/>
<path d="M1854 336 c-38 -38 -45 -85 -20 -135 27 -51 121 -69 167 -32 23 19
23 21 7 37 -14 14 -20 15 -30 6 -24 -24 -98 -9 -98 20 0 4 36 8 80 8 89 0 92
3 66 64 -18 44 -52 66 -99 66 -31 0 -46 -7 -73 -34z m107 -26 c33 -18 21 -30
-31 -30 -51 0 -60 6 -38 28 15 15 43 15 69 2z"/>
</g>
</svg>
